<svg xmlns="http://www.w3.org/2000/svg" width="1067" height="1600" viewBox="0 0 1067 1600" role="img"><defs></defs><rect width="1067" height="1600" fill="#2f5d4f"/><rect x="796.4883121699095" y="907.4509562551975" width="19.599099897011182" height="438.5576470941305" fill="#2b2330" opacity="0.5480555403977633"/><rect x="380.9397425206844" y="396.2441288307309" width="21.03289201732725" height="262.4734142050147" fill="#5c8a6f" opacity="0.5965854204259813"/><rect x="377.08245647652075" y="1022.547462657094" width="19.823260670420716" height="227.23797634243965" fill="#5c8a6f" opacity="0.785194425098598"/><rect x="386.42587497248314" y="716.7241985723376" width="23.888566688401625" height="318.63304186612373" fill="#2b2330" opacity="0.7139588051475585"/><rect x="732.4032815052196" y="1189.3440645933151" width="25.36202495872509" height="206.44855268299577" fill="#5c8a6f" opacity="0.7500864557921887"/><rect x="139.38936407794245" y="357.2064635530114" width="11.30033012824133" height="568.1181002780795" fill="#5c8a6f" opacity="0.5535033072344959"/><rect x="231.8102537789382" y="759.9227046221494" width="31.918437411882913" height="185.58214783668518" fill="#2b2330" opacity="0.633096625097096"/><rect x="945.1404182470869" y="809.6611910685897" width="15.600078679481522" height="519.1340938583016" fill="#5c8a6f" opacity="0.7112774980254472"/><rect x="991.851180722937" y="904.0319131314754" width="28.09954026801046" height="432.7799694985151" fill="#5c8a6f" opacity="0.6842980440706015"/><rect x="1056.953680275241" y="1096.4731915667653" width="23.143701180294155" height="436.5379476174712" fill="#2b2330" opacity="0.8402965261600912"/><rect x="452.498201189097" y="850.2071086317301" width="29.13983995952178" height="318.1247155368328" fill="#5c8a6f" opacity="0.532170825265348"/><rect x="99.63643985218368" y="539.0047458931804" width="19.044332710420715" height="628.1670476868749" fill="#5c8a6f" opacity="0.5598407418467104"/><rect x="280.75326755736023" y="828.997831642628" width="11.523827369171196" height="434.116343036294" fill="#2b2330" opacity="0.8883666396141052"/><rect x="200.67831274610944" y="417.10335675627005" width="29.729472778122876" height="553.4607623144984" fill="#5c8a6f" opacity="0.7313719871453941"/><rect x="403.67377859400585" y="529.0636309236288" width="22.01226609146688" height="324.34852093458176" fill="#5c8a6f" opacity="0.7594862127676607"/><rect x="487.44369037332945" y="840.3941681608558" width="17.93540300664492" height="449.7455370798707" fill="#2b2330" opacity="0.649153255391866"/><rect x="578.4696081839502" y="944.2440707981586" width="26.876709148674273" height="209.89748500287533" fill="#5c8a6f" opacity="0.6387701515108347"/><rect x="215.72275565215386" y="815.1656465604901" width="14.688726097531616" height="540.7734080776572" fill="#5c8a6f" opacity="0.8253080478869379"/><rect x="727.7905484917574" y="1025.8020783215761" width="16.130669454378076" height="480.27876392006874" fill="#2b2330" opacity="0.7931816158816218"/><rect x="596.4597907268908" y="427.37586747854937" width="12.493578316895292" height="505.072526820004" fill="#5c8a6f" opacity="0.8088213809765876"/><rect x="543.0956470435485" y="1188.8835990428925" width="16.797802911321632" height="401.92099519073963" fill="#5c8a6f" opacity="0.6195624776184558"/><rect x="73.31636933539994" y="222.77550134807836" width="15.652891969475894" height="528.3870406076312" fill="#2b2330" opacity="0.890875021647662"/><rect x="373.01056565949693" y="805.83028011024" width="30.39111537399236" height="281.94979965686804" fill="#5c8a6f" opacity="0.8423727305606008"/><rect x="170.08933128113858" y="759.3623423203825" width="21.061752294087785" height="254.95242211967707" fill="#5c8a6f" opacity="0.6399251547642052"/><rect x="567.2734251040965" y="581.3256494700909" width="10.996325800172054" height="478.66843335330486" fill="#2b2330" opacity="0.7899760436266661"/><rect x="182.5766786581371" y="965.3509737923741" width="25.349154932796957" height="356.57109197229147" fill="#5c8a6f" opacity="0.804071310069412"/><rect x="1045.1811227588914" y="895.4490099102259" width="13.71085775942076" height="402.4656854569912" fill="#5c8a6f" opacity="0.8415124719962478"/><rect x="378.45621316484176" y="1147.5599144026637" width="30.810075594922527" height="166.4219279959798" fill="#2b2330" opacity="0.8405310020782053"/><rect x="161.81432155985385" y="770.5550166964531" width="25.851240060213023" height="191.9752410799265" fill="#5c8a6f" opacity="0.7071024671196937"/><rect x="342.7993510302622" y="1210.5873382464051" width="14.67146275570616" height="226.25600498169663" fill="#5c8a6f" opacity="0.60742516098544"/><rect x="961.677706879098" y="976.4906575530769" width="30.019724601195197" height="590.1544776558875" fill="#2b2330" opacity="0.6154544511809945"/><rect x="306.173606763361" y="896.3652130588889" width="15.232307198243216" height="221.0996586456895" fill="#5c8a6f" opacity="0.6065950577147305"/><rect x="621.1801939681172" y="526.005103737116" width="29.719425645782614" height="353.5444136708975" fill="#5c8a6f" opacity="0.8599013466387988"/><rect x="222.57922912412323" y="986.6504501178861" width="27.378078926019374" height="494.80471756309277" fill="#2b2330" opacity="0.6228120512329042"/><rect x="597.5350420172326" y="1138.301650956273" width="19.63999956306536" height="175.31627848744392" fill="#5c8a6f" opacity="0.6214695764705539"/><rect x="109.90590240224265" y="1017.7304096147418" width="13.432302442146465" height="542.754496820271" fill="#5c8a6f" opacity="0.6895071112550795"/><rect x="583.6197918234393" y="913.5247188806534" width="20.96656767174136" height="538.8039220124483" fill="#2b2330" opacity="0.870787175744772"/><rect x="581.8717932768632" y="1207.0888552442193" width="23.981615610141308" height="354.7528971359134" fill="#5c8a6f" opacity="0.649037694465369"/><rect x="701.0380924963392" y="1254.5686279982328" width="29.666987167545592" height="293.0650329589844" fill="#5c8a6f" opacity="0.7744657801464201"/><rect x="125.70702821831219" y="1055.9972017630935" width="15.454075279841199" height="341.5927032008767" fill="#2b2330" opacity="0.5915251773782074"/><rect width="1067" height="800" fill="#f3ead7" opacity="0.12"/></svg>